<?xml version="1.0" encoding="utf-8"?>
<!-- Generator: Adobe Illustrator 16.0.4, SVG Export Plug-In . SVG Version: 6.00 Build 0)  -->
<!DOCTYPE svg PUBLIC "-//W3C//DTD SVG 1.1//EN" "http://www.w3.org/Graphics/SVG/1.1/DTD/svg11.dtd">
<svg version="1.1" id="Layer_1" xmlns="http://www.w3.org/2000/svg" xmlns:xlink="http://www.w3.org/1999/xlink" x="0px" y="0px"
	 width="84px" height="112px" viewBox="0 0 84 112" enable-background="new 0 0 84 112" xml:space="preserve">
<path d="M51.334,0H0v112h84V32.667L51.334,0z M74.665,102.666H9.333V9.333h37.333v28h27.999V102.666z M46.666,46.667
	c14,0,14,13.999,14,13.999S57.605,56,46.475,56c-0.634,0-1.173,0-1.641,0v16.366c1.154,1.14,1.832,2.641,1.832,4.415
	c0,4.955-5.221,10.117-11.666,11.525s-11.667-1.467-11.667-6.423c0-4.954,5.222-10.114,11.667-11.524
	c3.535-0.773,6.695-0.252,8.834,1.188V56c-1.593,0-1.812,0-1.834,0v-9.333c0.42,0,1.018,0,1.834,0h1
	C45.372,46.667,45.975,46.667,46.666,46.667z"/>
</svg>
