<?xml version="1.0" encoding="utf-8"?>
<!-- Generator: Adobe Illustrator 16.0.4, SVG Export Plug-In . SVG Version: 6.00 Build 0)  -->
<!DOCTYPE svg PUBLIC "-//W3C//DTD SVG 1.1//EN" "http://www.w3.org/Graphics/SVG/1.1/DTD/svg11.dtd">
<svg version="1.1" id="Layer_1" xmlns="http://www.w3.org/2000/svg" xmlns:xlink="http://www.w3.org/1999/xlink" x="0px" y="0px"
	 width="111.254px" height="111.254px" viewBox="0 0 111.254 111.254" enable-background="new 0 0 111.254 111.254"
	 xml:space="preserve">
<path d="M11.297,11.17c-3.831,3.831-5.94,8.924-5.94,14.34s2.109,10.509,5.94,14.34l21.899,21.899l-1.414,1.414L9.883,41.264
	c-4.208-4.208-6.526-9.803-6.526-15.754S5.675,13.964,9.884,9.756c4.208-4.209,9.803-6.527,15.754-6.527s11.546,2.318,15.755,6.527
	c1.343,1.34,5.9,5.898,10.54,10.538c4.885,4.885,9.861,9.861,11.275,11.273l-1.412,1.415c-1.415-1.412-6.393-6.389-11.277-11.274
	c-4.64-4.64-9.195-9.196-10.54-10.538c-3.831-3.832-8.925-5.941-14.341-5.941S15.128,7.339,11.297,11.17z M79.434,47.794
	l-1.414,1.414l22.063,22.064c3.83,3.83,5.939,8.922,5.939,14.34c0,5.416-2.109,10.51-5.939,14.342
	c-7.907,7.906-20.773,7.906-28.682,0L49.426,77.977l-1.414,1.414l21.976,21.977c4.344,4.344,10.049,6.516,15.754,6.516
	c5.707,0,11.412-2.172,15.756-6.516c4.209-4.209,6.525-9.805,6.525-15.756s-2.316-11.547-6.525-15.754L79.434,47.794z M85.041,28.91
	l26.215-22.311L104.656,0L82.344,26.213L85.041,28.91z M83.367,2.516L77.328,1.27l-2.805,22.573l2.469,0.508L83.367,2.516z
	 M0,104.655l6.6,6.6L28.91,85.04l-2.696-2.695L0,104.655z M23.843,74.522L1.27,77.327l1.246,6.039l21.835-6.375L23.843,74.522z"/>
</svg>
