<?xml version="1.0" encoding="utf-8"?>
<!-- Generator: Adobe Illustrator 16.0.4, SVG Export Plug-In . SVG Version: 6.00 Build 0)  -->
<!DOCTYPE svg PUBLIC "-//W3C//DTD SVG 1.1//EN" "http://www.w3.org/Graphics/SVG/1.1/DTD/svg11.dtd">
<svg version="1.1" id="Layer_1" xmlns="http://www.w3.org/2000/svg" xmlns:xlink="http://www.w3.org/1999/xlink" x="0px" y="0px"
	 width="84px" height="112px" viewBox="0 0 84 112" enable-background="new 0 0 84 112" xml:space="preserve">
<path d="M79.334,0H4.667C2.091,0,0,2.091,0,4.667v102.667C0,109.909,2.091,112,4.667,112h74.667c2.575,0,4.666-2.091,4.666-4.666
	V4.667C84,2.091,81.909,0,79.334,0z M18.667,102.666H9.334v-9.332h9.333V102.666L18.667,102.666z M18.667,84H9.334v-9.334h9.333V84
	L18.667,84z M18.667,65.334H9.334V56h9.333V65.334L18.667,65.334z M37.333,102.666H28v-9.332h9.333V102.666L37.333,102.666z
	 M37.333,84H28v-9.334h9.333V84L37.333,84z M37.333,65.334H28V56h9.333V65.334L37.333,65.334z M56,102.666h-9.334v-9.332H56V102.666
	z M56,84h-9.334v-9.334H56V84z M56,65.334h-9.334V56H56V65.334z M74.666,102.666h-9.332v-9.332h9.332V102.666z M74.666,84h-9.332
	v-9.334h9.332V84z M74.666,65.334h-9.332V56h9.332V65.334z M74.666,37.333H9.333v-28h65.333V37.333z M68.277,15.721H57.721v15.225
	h10.557V15.721z M67.055,29.721h-8.107V16.945h8.107V29.721z"/>
</svg>
