<?xml version="1.0" encoding="utf-8"?>
<!-- Generator: Adobe Illustrator 16.0.4, SVG Export Plug-In . SVG Version: 6.00 Build 0)  -->
<!DOCTYPE svg PUBLIC "-//W3C//DTD SVG 1.1//EN" "http://www.w3.org/Graphics/SVG/1.1/DTD/svg11.dtd">
<svg version="1.1" id="Layer_1" xmlns="http://www.w3.org/2000/svg" xmlns:xlink="http://www.w3.org/1999/xlink" x="0px" y="0px"
	 width="112px" height="112px" viewBox="0 0 112 112" enable-background="new 0 0 112 112" xml:space="preserve">
<path d="M107.335,14h-14v9.333H74.667V14H37.334v9.333H18.667V14h-14C2.091,14,0,16.091,0,18.667v14
	c0,2.576,2.091,4.667,4.667,4.667h0.001V112h102.667V37.334c2.575,0,4.665-2.091,4.665-4.667v-14
	C112.001,16.091,109.91,14,107.335,14z M14.001,102.666V37.334h84v65.332H14.001z M32.667,18.667h-9.333V0h9.333V18.667
	L32.667,18.667z M88.667,18.667h-9.332V0h9.332V18.667z M23.334,46.667h9.333V56h-9.333V46.667L23.334,46.667z M42.001,46.667h9.333
	V56h-9.333V46.667z M60.667,46.667h9.334V56h-9.334V46.667z M79.335,46.667h9.332V56h-9.332V46.667L79.335,46.667z M23.334,65.334
	h9.333v9.332h-9.333V65.334L23.334,65.334z M42.001,65.334h9.333v9.332h-9.333V65.334z M60.667,65.334h9.334v9.332h-9.334V65.334z
	 M79.335,65.334h9.332v9.332h-9.332V65.334L79.335,65.334z M23.334,84h9.333v9.334h-9.333V84L23.334,84z M42.001,84h9.333v9.334
	h-9.333V84z M60.667,84h9.334v9.334h-9.334V84z M79.335,84h9.332v9.334h-9.332V84L79.335,84z"/>
</svg>
