<?xml version="1.0" encoding="utf-8"?>
<!-- Generator: Adobe Illustrator 16.0.4, SVG Export Plug-In . SVG Version: 6.00 Build 0)  -->
<!DOCTYPE svg PUBLIC "-//W3C//DTD SVG 1.1//EN" "http://www.w3.org/Graphics/SVG/1.1/DTD/svg11.dtd">
<svg version="1.1" id="Layer_1" xmlns="http://www.w3.org/2000/svg" xmlns:xlink="http://www.w3.org/1999/xlink" x="0px" y="0px"
	 width="112px" height="112px" viewBox="0 0 112 112" enable-background="new 0 0 112 112" xml:space="preserve">
<path d="M58.954,55.79l23.669,25.362l-4.521,4.64L49.484,60.33l-0.526-4.003l2.044-38.263h5.945L58.954,55.79z M112,56
	c0,30.926-25.074,56-56,56S0,86.926,0,56S25.074,0,56,0S112,25.074,112,56z M102.666,56c0-25.774-20.893-46.667-46.666-46.667
	S9.333,30.226,9.333,56c0,25.773,20.894,46.666,46.667,46.666S102.666,81.773,102.666,56z"/>
</svg>
