<?xml version="1.0" encoding="utf-8"?>
<!-- Generator: Adobe Illustrator 16.0.4, SVG Export Plug-In . SVG Version: 6.00 Build 0)  -->
<!DOCTYPE svg PUBLIC "-//W3C//DTD SVG 1.1//EN" "http://www.w3.org/Graphics/SVG/1.1/DTD/svg11.dtd">
<svg version="1.1" id="Layer_1" xmlns="http://www.w3.org/2000/svg" xmlns:xlink="http://www.w3.org/1999/xlink" x="0px" y="0px"
	 width="88.667px" height="112px" viewBox="0 0 88.667 112" enable-background="new 0 0 88.667 112" xml:space="preserve">
<path d="M74.667,0H0v93.334L11.502,112h77.164V26.708L74.667,0z M37.334,28c5.156,0,9.332,4.177,9.332,9.333
	s-4.176,9.333-9.332,9.333c-5.152,0-9.334-4.176-9.334-9.333S32.176,28,37.334,28z M30.879,51.436
	c1.922,1.031,4.117,1.615,6.44,1.615c2.329,0,4.522-0.583,6.444-1.615c4.152,1.092,7.406,3.673,8.895,9.23H21.991
	C23.479,55.113,26.731,52.528,30.879,51.436z M79.333,102.666H16.497l-5.66-9.332h63.83V19.311l4.666,9.978V102.666z"/>
</svg>
