<?xml version="1.0" encoding="utf-8"?>
<!-- Generator: Adobe Illustrator 16.0.4, SVG Export Plug-In . SVG Version: 6.00 Build 0)  -->
<!DOCTYPE svg PUBLIC "-//W3C//DTD SVG 1.1//EN" "http://www.w3.org/Graphics/SVG/1.1/DTD/svg11.dtd">
<svg version="1.1" id="Layer_1" xmlns="http://www.w3.org/2000/svg" xmlns:xlink="http://www.w3.org/1999/xlink" x="0px" y="0px"
	 width="112px" height="112px" viewBox="0 0 112 112" enable-background="new 0 0 112 112" xml:space="preserve">
<path d="M98.42,59.107l4.877,9.076l-6.043-9.604L98.42,59.107z M97.631,52.159l-7.561-2.053l-0.76-0.924l0.147,2.198l-0.194,0.168
	l-5.918-6.179l-0.01,0.047l-0.953,0.229l-0.156-0.229l0.289,1.19l2.334,1.708l0.178,1.246l-0.459,0.765l-0.336,0.248l-0.424,0.154
	l-2.229-3.5l-3.348,0.019l-6.977,5.18l9.156-0.336l4.139,3.752l1.975,0.691l10.986-2.203L97.631,52.159z M112,56
	c0,30.932-25.068,56-55.995,56C25.079,112,0,86.932,0,56C0,25.069,25.079,0,56.005,0C86.932,0,112,25.069,112,56z M71.26,33.381
	l0.02,4.765l0.973,2.44l2.291-0.532l0.125-1.578L71.26,33.381z M74.662,24.841l-0.812-0.327l-1.734,0.387l-1.656-0.364l-0.068,2.058
	l0.182,0.453l2.236,0.215l1.432-1.115L74.662,24.841z M41.463,10.005l2.805-0.112l5.438-3.556c-1.736,0.219-3.436,0.522-5.109,0.91
	l-1,1.32L41.463,10.005z M37.986,11.639l1.844,1.465l2.361,0.317l1.459-1.405l-0.877-0.131l-3.645-2.072l-1.055-0.205L37.986,11.639
	z M33.186,11.415l0.201,0.266l1.026-0.061l1.11-0.476l0.61-0.747l-0.219-0.317C34.986,10.481,34.09,10.958,33.186,11.415z
	 M30.506,17.084l1.372,0.201l0.985-1.157l0.271-1.349l-0.731-0.378l-1.891,2.081L30.506,17.084z M20.473,20.925l2.465,1.405
	l3.621-1.671l2.823-3.038l0.07-2.734l-2.44,0.48l-0.248-0.088c-1.717,1.223-3.346,2.576-4.895,4.004l0.271,0.271l-1.484,1.027
	L20.473,20.925z M6.688,60.494l-1.082-1.857c0,0.168,0.019,0.336,0.027,0.504l1.018,2.272L6.688,60.494z M56.411,82.245
	l-2.524-1.871l-7.238-2.146l-4.236-5.556l-5.223-1.981l-12.264-0.416l-3.724-6.28l-0.979-0.117l-3.058,1.472l-1.097-1.183
	l-0.215-1.722l0.377-1.413l1.924-2.609l2.287-1.271l5.697,1.061l0.836,2.395l1.764,0.416l-0.033-3.653l4.779-6.953l10.546-5.875
	l-1.53-0.191l-2.727-2.011l6.931-1.969l0.247,0.616l-0.094,0.583l-0.428,0.56l-0.762,0.537l0.551,0.737l1.689,0.084l1.367-0.513
	L44.73,31.99l-0.635,0.084l-5.535-2.665l-1.246,1.199l-3.226,8.255l-1.56-1.396l-3.69-1.699l-2.276-2.594l2.684-4.032l8.204-6.361
	l1.213-3.425l3.78,2.39l0.597,1.311l-3.976,3.248l3.957,2.487l0.863-0.462l0.406,0.028l1.68-2.66l-0.373-0.43l2.311-2.534
	l-1.778-3.057l-4.592-3.911l2.431-0.434l-0.13-0.635l-1.33-0.303l-3.817,2.161l1.232-2.016l-2.576,0.812l-0.453,6.286l-2.035,1.395
	l-1.446-1.358l3.762-7.009l-0.304-0.303l-0.346-0.145h-0.392L35.7,14.38l-5.983,8.335l0.117-0.504l0.611-1.152l-0.229-0.467
	l-1.019,0.593l-8.604,1.773l-1.559-0.868C10.568,31.199,5.389,43.398,5.492,56.811c0,0.157,0.023,0.316,0.027,0.484l0.023-0.08
	l1.246,0.463l4.55,7.729l13.692,6.039l1.871,2.072l0.041,2.748l-1.707,4.084l-0.094,2.238l5.937,11.482l0.177,6.365
	c3.201,1.816,6.604,3.311,10.197,4.396l6.211-7.957l5.521-4.074L56.411,82.245z M35.723,26.129l-0.466-0.672l-0.458-0.112
	l-1.722,2.156l0.308,0.327l2.1,0.01l0.664-0.416L35.723,26.129z M56.746,30.646l14.229-12.311l3.342-8.946
	C68.525,7.131,62.23,5.875,55.632,5.922c-0.868,0.009-1.717,0.098-2.575,0.149l-0.658,0.354l-1.344,1.932L50.793,9.64l0.518,0.948
	l3.66,0.476l1.059,7.075L54.214,22.4l-0.435,3.127l1.152,3.304L56.746,30.646z M104.426,69.516l0.393-0.238
	c1.105-4.225,1.736-8.639,1.703-13.21c-0.031-3.248-0.383-6.417-0.987-9.483l-0.271-0.55l0.098-0.369
	c-1.567-7.229-4.723-13.846-9.016-19.548l-0.318,0.13l-1.834-1.876l0.672-0.205c-1.575-1.895-3.321-3.635-5.159-5.288l-1.541-0.098
	l-2.813,1.208l-7.377,10.01L78.32,31.3l3.468,2.665v1.372l-9.744,7.182l0.069,0.929l0.789,1.316l0.267,1.195l-4.214,1.675
	l-0.327,2.17l0.312,2.655l-6.453,12.688l-0.274,5.627l4.812,2.838l7.947-0.026l3.584,1.021l6.822,22.877
	c9.286-6.654,16.198-16.381,19.303-27.688L104.426,69.516z M91.527,31.341l-0.547-0.303l-2.439-0.149l-1.027-0.868l1.242-4.578
	l-6.072,9.828l-1.596,1.195l2.959,1.125L91.527,31.341z M28.262,41.258l-0.005,0.107l-3.052,1.438l3.859-0.766L28.262,41.258z
	 M27.184,44.44l-0.547,1.974l1.778-2.021l0.146-0.63l-0.767-0.299L27.184,44.44z M30.57,45.084l0.379-0.298l0.332-0.766
	l-0.061,0.103l0.266-0.896l-0.723-0.107l-0.556,0.14l-0.369,0.388l-0.182,0.644l0.485,0.625L30.57,45.084z M100.268,48.165
	l-0.224-0.779l-4.765-3.094l-1.152-0.07L93.1,45.351l-0.514,1.405l0.426,0.774L100.268,48.165z M97.674,44.889l0.484-0.243
	l0.188-0.49l-0.08,0.051l-0.545-0.313l-0.589-0.107l-0.224,0.705l0.262,0.364L97.674,44.889z"/>
</svg>
