<?xml version="1.0" encoding="utf-8"?>
<!-- Generator: Adobe Illustrator 16.0.0, SVG Export Plug-In . SVG Version: 6.00 Build 0)  -->
<!DOCTYPE svg PUBLIC "-//W3C//DTD SVG 1.1//EN" "http://www.w3.org/Graphics/SVG/1.1/DTD/svg11.dtd">
<svg version="1.1" id="Ebene_1" xmlns="http://www.w3.org/2000/svg" xmlns:xlink="http://www.w3.org/1999/xlink" x="0px" y="0px"
	 width="32px" height="32px" viewBox="0 0 32 32" enable-background="new 0 0 32 32" xml:space="preserve">
<g>
	<path fill="#8296C4" d="M12.646,22.745l4.56,4.435l3.883-5.098c-1.541,0.737-3.267,1.15-5.089,1.15
		C14.835,23.231,13.71,23.061,12.646,22.745z"/>
	<path fill="#8296C4" d="M26.704,16.465c-0.366,0.769-0.812,1.491-1.329,2.158c-0.022,0.081-0.061,0.16-0.114,0.231l-7.071,9.282
		l3.071,2.985h7.823c1.492,0,2.738-1.12,2.899-2.605c0.002-0.029,0.005-0.061,0.008-0.089l0.005-0.14
		C32.128,25.044,28.963,19.147,26.704,16.465z"/>
	<path fill="#8296C4" d="M25.641,15.52L25.641,15.52c0.271-0.63,0.483-1.291,0.629-1.976c0.001-0.009,0.004-0.018,0.005-0.026
		c0.033-0.156,0.062-0.312,0.086-0.47c0.004-0.019,0.009-0.037,0.011-0.056c0.023-0.147,0.042-0.297,0.059-0.445
		c0.002-0.03,0.009-0.059,0.013-0.088c0.015-0.141,0.022-0.284,0.031-0.427c0.002-0.038,0.008-0.076,0.01-0.113
		c0.009-0.18,0.014-0.361,0.014-0.544c0-0.18-0.004-0.36-0.014-0.539c-0.002-0.052-0.01-0.103-0.013-0.154
		c-0.008-0.126-0.017-0.253-0.027-0.377c-0.008-0.076-0.022-0.152-0.028-0.228c-0.013-0.099-0.023-0.199-0.038-0.296
		c-0.014-0.081-0.029-0.158-0.043-0.238c-0.018-0.093-0.03-0.186-0.051-0.278c-0.018-0.086-0.039-0.171-0.059-0.256
		c-0.021-0.083-0.037-0.167-0.058-0.25c-0.025-0.094-0.052-0.186-0.079-0.278c-0.021-0.073-0.04-0.146-0.062-0.219
		c-0.03-0.098-0.066-0.195-0.098-0.293c-0.023-0.064-0.044-0.129-0.067-0.193c-0.037-0.102-0.078-0.201-0.118-0.301
		c-0.023-0.058-0.045-0.117-0.069-0.176c-0.043-0.106-0.094-0.21-0.142-0.315c-0.021-0.049-0.043-0.099-0.066-0.147
		c-0.053-0.112-0.11-0.218-0.167-0.326c-0.022-0.042-0.042-0.085-0.066-0.127c-0.061-0.113-0.125-0.224-0.191-0.335
		C25.02,6.011,25,5.978,24.979,5.944c-0.071-0.117-0.145-0.23-0.22-0.343c-0.018-0.027-0.034-0.055-0.052-0.083
		c-0.078-0.116-0.16-0.23-0.243-0.343c-0.019-0.022-0.033-0.044-0.048-0.067c-0.088-0.116-0.177-0.229-0.269-0.343
		c-0.016-0.017-0.027-0.035-0.042-0.053c-0.099-0.118-0.2-0.233-0.302-0.348c-0.009-0.01-0.019-0.021-0.027-0.032
		c-0.106-0.116-0.215-0.231-0.325-0.343c-0.006-0.006-0.015-0.014-0.021-0.022c-0.113-0.115-0.233-0.229-0.354-0.338
		c-0.002-0.002-0.004-0.004-0.007-0.007c-1.854-1.691-4.314-2.729-7.015-2.744c-0.004,0-0.007,0-0.01,0
		c0.378,0.203,0.727,0.409,1.025,0.607c2.047,1.344,2.618,4.104,1.273,6.151c-0.707,1.078-1.887,1.664-3.09,1.664
		c-0.695,0-1.396-0.196-2.02-0.604c-1.423-0.936-1.821-2.853-0.887-4.277c0.382-0.581,0.969-0.98,1.65-1.121
		c0.682-0.141,1.378-0.008,1.959,0.375c0.417,0.273,0.73,0.683,0.889,1.154c0.119,0.356-0.072,0.742-0.431,0.862
		c-0.357,0.119-0.743-0.074-0.861-0.431c-0.062-0.185-0.181-0.338-0.345-0.445c-0.572-0.376-1.346-0.216-1.722,0.356
		c-0.522,0.796-0.301,1.867,0.494,2.39c0.521,0.341,1.142,0.46,1.75,0.333c0.608-0.126,1.131-0.481,1.473-1
		c0.933-1.42,0.536-3.333-0.883-4.265c-0.848-0.557-1.912-1.086-2.952-1.414c-0.153,0.04-0.304,0.083-0.454,0.129
		c-0.054,0.017-0.108,0.037-0.163,0.054c-0.098,0.032-0.195,0.064-0.291,0.098c-0.061,0.022-0.122,0.044-0.183,0.068
		c-0.088,0.035-0.178,0.068-0.266,0.105c-0.061,0.024-0.122,0.05-0.182,0.077c-0.089,0.038-0.176,0.079-0.263,0.12
		c-0.057,0.026-0.114,0.052-0.17,0.08c-0.098,0.048-0.195,0.1-0.292,0.15c-0.043,0.022-0.086,0.044-0.129,0.066
		c-0.135,0.073-0.269,0.151-0.399,0.23C10.54,2.411,10.5,2.438,10.46,2.464c-0.093,0.058-0.186,0.115-0.275,0.176
		c-0.052,0.034-0.102,0.07-0.152,0.104C9.954,2.799,9.876,2.854,9.798,2.911C9.746,2.949,9.694,2.987,9.644,3.027
		C9.568,3.085,9.494,3.144,9.42,3.203c-0.048,0.04-0.097,0.079-0.146,0.119C9.195,3.386,9.12,3.455,9.043,3.523
		c-0.04,0.035-0.082,0.071-0.122,0.106C8.809,3.733,8.696,3.84,8.587,3.949C8.569,3.967,8.553,3.986,8.534,4.004
		c-0.092,0.093-0.183,0.187-0.27,0.284C8.226,4.33,8.19,4.372,8.152,4.415C8.085,4.488,8.02,4.564,7.954,4.642
		c-0.04,0.047-0.079,0.096-0.117,0.144c-0.061,0.075-0.121,0.151-0.18,0.228C7.62,5.062,7.583,5.111,7.547,5.162
		C7.485,5.243,7.428,5.326,7.37,5.408C7.339,5.455,7.306,5.501,7.274,5.547c-0.07,0.105-0.139,0.212-0.206,0.321
		c-0.016,0.025-0.031,0.05-0.048,0.076C6.939,6.077,6.861,6.212,6.787,6.35C6.765,6.392,6.743,6.434,6.721,6.476
		C6.669,6.574,6.617,6.671,6.569,6.77C6.544,6.823,6.52,6.877,6.493,6.93C6.451,7.021,6.408,7.112,6.369,7.205
		C6.345,7.262,6.32,7.318,6.297,7.375C6.258,7.468,6.222,7.563,6.186,7.659C6.165,7.713,6.144,7.768,6.124,7.823
		c-0.04,0.109-0.076,0.219-0.112,0.329C5.999,8.193,5.983,8.234,5.971,8.277C5.923,8.43,5.88,8.583,5.839,8.738
		C5.831,8.772,5.824,8.805,5.815,8.839C5.784,8.962,5.756,9.086,5.729,9.21C5.717,9.266,5.708,9.323,5.696,9.378
		c-0.02,0.105-0.039,0.209-0.056,0.315c-0.01,0.062-0.02,0.124-0.027,0.184c-0.016,0.104-0.028,0.208-0.04,0.312
		c-0.008,0.062-0.014,0.123-0.021,0.185c-0.011,0.112-0.02,0.224-0.025,0.337c-0.003,0.053-0.008,0.107-0.011,0.16
		c-0.008,0.167-0.013,0.333-0.013,0.502c0,0.183,0.004,0.364,0.014,0.544c0.002,0.039,0.007,0.075,0.009,0.113
		c0.009,0.143,0.02,0.286,0.034,0.426c0.003,0.031,0.008,0.062,0.012,0.093c0.018,0.148,0.035,0.295,0.058,0.442
		c0.003,0.022,0.009,0.043,0.012,0.066c0.024,0.154,0.052,0.309,0.084,0.46c0.002,0.012,0.006,0.023,0.009,0.037
		c0.034,0.161,0.071,0.322,0.113,0.481c0.001,0.004,0.002,0.008,0.003,0.012c0.133,0.507,0.304,0.999,0.509,1.472
		c1.61,3.73,5.325,6.35,9.641,6.35C20.315,21.868,24.029,19.249,25.641,15.52z M11.629,14.36c-0.852,0-1.542-0.69-1.542-1.541
		c0-0.852,0.69-1.541,1.542-1.541s1.541,0.688,1.541,1.541C13.17,13.67,12.48,14.36,11.629,14.36z M16,14.36
		c0.716,0,1.316,0.489,1.49,1.149c-0.54,0.043-1.049,0.083-1.49,0.083s-0.95-0.04-1.489-0.083C14.685,14.849,15.284,14.36,16,14.36z
		 M17.423,19.138c-0.066,0.035-0.665,0.358-1.423,0.358s-1.356-0.323-1.422-0.358c-0.329-0.184-0.446-0.6-0.264-0.927
		c0.184-0.33,0.599-0.446,0.928-0.264c0,0,0.353,0.187,0.758,0.187c0.407,0,0.76-0.187,0.763-0.188
		c0.329-0.178,0.743-0.058,0.923,0.271C17.866,18.544,17.75,18.956,17.423,19.138z M20.712,14.321
		c-0.074,0.006-0.147,0.016-0.219,0.033c-0.04,0.003-0.08,0.006-0.12,0.006c-0.851,0-1.542-0.69-1.542-1.541
		c0-0.852,0.691-1.541,1.542-1.541s1.541,0.688,1.541,1.541C21.914,13.554,21.4,14.167,20.712,14.321z"/>
	<path fill="#8296C4" d="M7.473,19.617c-0.036-0.036-0.067-0.072-0.094-0.113c-0.844-0.896-1.548-1.918-2.083-3.038
		c-2.259,2.684-5.423,8.578-5.292,11.822l0.005,0.142c0.001,0.029,0.004,0.061,0.007,0.089c0.16,1.486,1.407,2.604,2.9,2.604h16.391
		L7.473,19.617z"/>
</g>
</svg>
