<?xml version="1.0" encoding="utf-8"?>
<!-- Generator: Adobe Illustrator 16.0.0, SVG Export Plug-In . SVG Version: 6.00 Build 0)  -->
<!DOCTYPE svg PUBLIC "-//W3C//DTD SVG 1.1//EN" "http://www.w3.org/Graphics/SVG/1.1/DTD/svg11.dtd">
<svg version="1.1" id="Ebene_1" xmlns="http://www.w3.org/2000/svg" xmlns:xlink="http://www.w3.org/1999/xlink" x="0px" y="0px"
	 width="21px" height="21px" viewBox="0 0 21 21" enable-background="new 0 0 21 21" xml:space="preserve">
<g>
	<path fill="#999999" d="M8.299,14.925l2.994,2.908l2.548-3.345c-1.013,0.483-2.146,0.754-3.34,0.754
		C9.736,15.243,8.998,15.132,8.299,14.925z"/>
	<path fill="#999999" d="M17.526,10.803c-0.241,0.503-0.533,0.979-0.874,1.417c-0.015,0.053-0.039,0.104-0.074,0.151l-4.64,6.091
		l2.015,1.961h5.134c0.979,0,1.798-0.736,1.902-1.711c0.003-0.02,0.005-0.039,0.005-0.059l0.003-0.092
		C21.084,16.433,19.007,12.562,17.526,10.803z"/>
	<path fill="#999999" d="M16.826,10.183L16.826,10.183c0.179-0.413,0.318-0.847,0.414-1.296c0.001-0.005,0.002-0.012,0.003-0.017
		c0.022-0.102,0.04-0.205,0.058-0.309c0.002-0.013,0.004-0.024,0.006-0.037c0.017-0.097,0.026-0.195,0.037-0.292
		c0.002-0.02,0.006-0.039,0.008-0.059c0.011-0.092,0.017-0.186,0.022-0.28c0.001-0.024,0.004-0.049,0.005-0.075
		c0.008-0.119,0.012-0.237,0.012-0.357c0-0.119-0.004-0.237-0.012-0.354c-0.001-0.033-0.005-0.067-0.007-0.101
		c-0.005-0.083-0.01-0.166-0.021-0.248c-0.004-0.049-0.013-0.1-0.02-0.148c-0.007-0.066-0.015-0.13-0.023-0.194
		c-0.008-0.053-0.021-0.104-0.027-0.156C17.27,6.2,17.26,6.139,17.248,6.078c-0.012-0.057-0.025-0.111-0.038-0.168
		c-0.014-0.055-0.022-0.109-0.039-0.164c-0.016-0.062-0.034-0.122-0.051-0.183c-0.014-0.048-0.027-0.097-0.041-0.144
		c-0.021-0.065-0.043-0.128-0.064-0.193c-0.016-0.042-0.028-0.085-0.044-0.126c-0.023-0.066-0.052-0.132-0.077-0.197
		c-0.016-0.039-0.03-0.078-0.046-0.115c-0.029-0.069-0.062-0.138-0.093-0.207c-0.015-0.033-0.028-0.065-0.044-0.098
		c-0.035-0.072-0.071-0.143-0.11-0.213c-0.014-0.027-0.025-0.055-0.043-0.083c-0.041-0.075-0.084-0.147-0.127-0.219
		c-0.012-0.022-0.023-0.045-0.039-0.067c-0.045-0.076-0.094-0.151-0.144-0.225c-0.011-0.018-0.021-0.036-0.034-0.054
		c-0.052-0.076-0.105-0.151-0.158-0.225c-0.013-0.014-0.022-0.029-0.031-0.044c-0.057-0.076-0.116-0.151-0.176-0.225
		c-0.01-0.011-0.019-0.023-0.027-0.034c-0.064-0.078-0.129-0.153-0.197-0.229c-0.007-0.006-0.012-0.013-0.02-0.021
		c-0.067-0.076-0.14-0.152-0.213-0.226c-0.005-0.004-0.009-0.01-0.015-0.014c-0.074-0.076-0.153-0.15-0.232-0.223
		c-0.002-0.002-0.003-0.003-0.005-0.005c-1.217-1.111-2.831-1.792-4.603-1.801c-0.002,0-0.005,0-0.007,0
		c0.248,0.133,0.476,0.269,0.673,0.398c1.344,0.882,1.719,2.693,0.836,4.037c-0.465,0.708-1.238,1.092-2.027,1.092
		c-0.457,0-0.917-0.129-1.326-0.397C7.751,5.092,7.491,3.832,8.104,2.899c0.252-0.384,0.637-0.645,1.084-0.738
		c0.448-0.091,0.905-0.004,1.286,0.246c0.272,0.178,0.48,0.447,0.582,0.757c0.078,0.234-0.048,0.487-0.284,0.566
		c-0.234,0.078-0.486-0.048-0.565-0.284c-0.038-0.121-0.116-0.222-0.223-0.292C9.608,2.907,9.1,3.012,8.853,3.388
		C8.511,3.91,8.656,4.613,9.178,4.957c0.341,0.224,0.749,0.302,1.148,0.219c0.398-0.083,0.743-0.316,0.966-0.656
		c0.611-0.932,0.352-2.188-0.58-2.799c-0.556-0.366-1.254-0.713-1.937-0.927c-0.1,0.026-0.199,0.054-0.297,0.083
		C8.442,0.888,8.407,0.9,8.371,0.912C8.307,0.933,8.243,0.954,8.18,0.977C8.14,0.99,8.1,1.006,8.06,1.021
		C8.001,1.043,7.944,1.066,7.886,1.089c-0.04,0.017-0.08,0.034-0.119,0.05C7.708,1.165,7.652,1.191,7.594,1.219
		C7.556,1.236,7.52,1.252,7.483,1.271C7.417,1.303,7.354,1.336,7.291,1.37C7.263,1.383,7.235,1.398,7.208,1.413
		C7.119,1.461,7.031,1.511,6.945,1.564c-0.026,0.017-0.052,0.034-0.08,0.05C6.805,1.652,6.744,1.691,6.684,1.73
		C6.651,1.753,6.617,1.776,6.585,1.799C6.533,1.835,6.481,1.872,6.431,1.908C6.397,1.934,6.364,1.959,6.33,1.985
		C6.28,2.023,6.231,2.061,6.183,2.101C6.151,2.125,6.119,2.152,6.087,2.178C6.036,2.22,5.986,2.266,5.935,2.31
		c-0.026,0.024-0.053,0.047-0.08,0.07C5.781,2.448,5.708,2.517,5.636,2.59C5.624,2.6,5.613,2.614,5.601,2.625
		c-0.06,0.061-0.119,0.123-0.177,0.186C5.398,2.839,5.375,2.867,5.351,2.895C5.306,2.944,5.263,2.993,5.221,3.043
		C5.195,3.075,5.169,3.106,5.145,3.138c-0.04,0.049-0.08,0.1-0.119,0.15C5.002,3.32,4.978,3.352,4.953,3.385
		c-0.04,0.053-0.078,0.108-0.115,0.162C4.817,3.577,4.796,3.607,4.775,3.637c-0.046,0.07-0.091,0.14-0.136,0.211
		c-0.01,0.017-0.021,0.033-0.031,0.05C4.555,3.986,4.504,4.075,4.455,4.165C4.44,4.192,4.426,4.219,4.411,4.248
		C4.377,4.312,4.344,4.376,4.312,4.441C4.295,4.476,4.278,4.512,4.263,4.546c-0.028,0.06-0.056,0.12-0.082,0.181
		C4.165,4.763,4.149,4.8,4.134,4.837C4.109,4.899,4.085,4.961,4.061,5.024C4.046,5.059,4.032,5.095,4.019,5.132
		c-0.025,0.07-0.05,0.143-0.073,0.215C3.937,5.375,3.928,5.402,3.919,5.43c-0.031,0.1-0.06,0.201-0.086,0.302
		c-0.005,0.022-0.01,0.044-0.016,0.066C3.796,5.879,3.777,5.96,3.761,6.042C3.752,6.079,3.746,6.116,3.739,6.151
		C3.726,6.221,3.713,6.29,3.703,6.359C3.695,6.399,3.69,6.44,3.684,6.48C3.674,6.547,3.665,6.617,3.659,6.685
		c-0.005,0.04-0.009,0.08-0.014,0.121C3.638,6.879,3.632,6.953,3.628,7.027c-0.002,0.035-0.005,0.07-0.006,0.105
		C3.617,7.241,3.613,7.351,3.613,7.46c0,0.121,0.003,0.24,0.01,0.358c0,0.025,0.003,0.049,0.004,0.075
		C3.633,7.987,3.64,8.081,3.65,8.174c0.002,0.02,0.005,0.041,0.007,0.061c0.012,0.096,0.023,0.194,0.038,0.29
		C3.698,8.54,3.701,8.553,3.703,8.567C3.72,8.669,3.737,8.769,3.759,8.87C3.76,8.876,3.762,8.884,3.764,8.893
		c0.022,0.106,0.047,0.211,0.074,0.315c0,0.002,0.001,0.005,0.003,0.009c0.087,0.332,0.199,0.654,0.333,0.965
		c1.057,2.448,3.495,4.167,6.326,4.167C13.333,14.349,15.771,12.632,16.826,10.183z M7.632,9.422c-0.559,0-1.011-0.454-1.011-1.011
		c0-0.558,0.452-1.011,1.011-1.011s1.011,0.453,1.011,1.011C8.643,8.968,8.19,9.422,7.632,9.422z M10.5,9.422
		c0.469,0,0.864,0.32,0.979,0.754c-0.355,0.028-0.688,0.054-0.979,0.054c-0.289,0-0.624-0.026-0.977-0.054
		C9.638,9.743,10.031,9.422,10.5,9.422z M11.436,12.556c-0.046,0.024-0.438,0.237-0.936,0.237c-0.498,0-0.89-0.213-0.933-0.237
		c-0.216-0.119-0.293-0.392-0.173-0.606c0.121-0.217,0.393-0.294,0.609-0.174c0,0,0.231,0.122,0.498,0.122
		c0.268,0,0.499-0.122,0.501-0.123c0.217-0.116,0.487-0.038,0.606,0.179C11.725,12.168,11.648,12.438,11.436,12.556z M13.593,9.397
		c-0.05,0.003-0.097,0.01-0.144,0.022c-0.026,0.002-0.055,0.004-0.08,0.004c-0.558,0-1.011-0.454-1.011-1.011
		s0.453-1.011,1.011-1.011c0.56,0,1.011,0.453,1.011,1.011C14.38,8.893,14.044,9.295,13.593,9.397z"/>
	<path fill="#999999" d="M4.905,12.872c-0.024-0.023-0.044-0.049-0.062-0.075c-0.553-0.587-1.015-1.258-1.367-1.994
		c-1.483,1.762-3.56,5.63-3.474,7.759l0.004,0.092c0,0.021,0.002,0.04,0.004,0.061c0.106,0.975,0.924,1.711,1.904,1.711H12.67
		L4.905,12.872z"/>
</g>
</svg>
