<?xml version="1.0" encoding="utf-8"?>
<!-- Generator: Adobe Illustrator 16.0.0, SVG Export Plug-In . SVG Version: 6.00 Build 0)  -->
<!DOCTYPE svg PUBLIC "-//W3C//DTD SVG 1.1//EN" "http://www.w3.org/Graphics/SVG/1.1/DTD/svg11.dtd">
<svg version="1.1" id="Ebene_1" xmlns="http://www.w3.org/2000/svg" xmlns:xlink="http://www.w3.org/1999/xlink" x="0px" y="0px"
	 width="32px" height="32px" viewBox="0 0 32 32" enable-background="new 0 0 32 32" xml:space="preserve">
<g>
	<path fill="#F08100" d="M12.645,22.744l4.561,4.434l3.882-5.096c-1.539,0.736-3.266,1.148-5.088,1.148
		C14.835,23.23,13.709,23.059,12.645,22.744z"/>
	<path fill="#F08100" d="M26.704,16.465c-0.367,0.768-0.812,1.49-1.329,2.156c-0.023,0.082-0.061,0.162-0.115,0.232l-7.07,9.281
		l3.07,2.986h7.823c1.492,0,2.738-1.121,2.899-2.605c0.002-0.027,0.005-0.061,0.009-0.09l0.005-0.139
		C32.127,25.043,28.962,19.146,26.704,16.465z"/>
	<path fill="#F08100" d="M25.641,15.518L25.641,15.518c0.271-0.629,0.482-1.289,0.628-1.975c0.001-0.009,0.004-0.017,0.005-0.026
		c0.033-0.156,0.062-0.312,0.087-0.471c0.003-0.019,0.008-0.037,0.01-0.056c0.023-0.147,0.042-0.297,0.059-0.445
		c0.002-0.03,0.011-0.059,0.014-0.088c0.016-0.141,0.021-0.284,0.03-0.427c0.002-0.038,0.009-0.075,0.012-0.113
		c0.008-0.18,0.013-0.361,0.013-0.545c0-0.18-0.004-0.36-0.013-0.539c-0.003-0.051-0.012-0.103-0.014-0.153
		c-0.009-0.126-0.017-0.253-0.027-0.378c-0.008-0.076-0.023-0.151-0.027-0.228c-0.014-0.099-0.022-0.198-0.037-0.296
		c-0.017-0.08-0.032-0.158-0.046-0.238c-0.018-0.093-0.029-0.186-0.05-0.278c-0.018-0.086-0.04-0.171-0.06-0.256
		c-0.02-0.083-0.036-0.167-0.058-0.25c-0.024-0.094-0.052-0.185-0.079-0.278c-0.021-0.073-0.039-0.146-0.062-0.219
		c-0.03-0.099-0.066-0.195-0.098-0.294c-0.023-0.063-0.044-0.128-0.066-0.193c-0.038-0.102-0.078-0.2-0.119-0.301
		c-0.022-0.059-0.045-0.117-0.068-0.176c-0.044-0.106-0.094-0.209-0.142-0.314c-0.022-0.049-0.044-0.099-0.066-0.148
		c-0.053-0.111-0.111-0.218-0.166-0.325c-0.022-0.042-0.043-0.085-0.066-0.127c-0.06-0.113-0.125-0.224-0.191-0.335
		c-0.021-0.034-0.039-0.068-0.062-0.102C24.91,5.826,24.835,5.713,24.76,5.6c-0.019-0.026-0.033-0.055-0.052-0.082
		c-0.078-0.116-0.158-0.23-0.244-0.343c-0.019-0.022-0.033-0.045-0.048-0.067c-0.087-0.116-0.177-0.229-0.269-0.342
		c-0.016-0.017-0.027-0.035-0.042-0.053c-0.099-0.118-0.199-0.233-0.302-0.348c-0.009-0.01-0.019-0.021-0.026-0.032
		c-0.107-0.116-0.214-0.231-0.325-0.343c-0.007-0.007-0.015-0.014-0.022-0.023c-0.113-0.115-0.233-0.228-0.354-0.338
		c-0.002-0.002-0.004-0.004-0.007-0.007c-1.854-1.691-4.314-2.729-7.015-2.744c-0.003,0-0.006,0-0.009,0
		c0.377,0.203,0.726,0.409,1.024,0.607c2.047,1.344,2.619,4.104,1.274,6.151c-0.708,1.078-1.888,1.664-3.09,1.664
		c-0.695,0-1.397-0.196-2.02-0.605c-1.424-0.935-1.821-2.853-0.887-4.277c0.382-0.581,0.968-0.98,1.649-1.121
		c0.682-0.141,1.379-0.009,1.96,0.374c0.416,0.273,0.73,0.683,0.889,1.154c0.118,0.356-0.073,0.742-0.431,0.862
		s-0.744-0.073-0.862-0.431C15.49,5.07,15.372,4.917,15.209,4.81c-0.572-0.376-1.346-0.216-1.723,0.356
		c-0.521,0.796-0.3,1.867,0.495,2.39c0.52,0.341,1.142,0.46,1.75,0.333c0.608-0.126,1.131-0.481,1.473-1
		c0.932-1.419,0.535-3.332-0.884-4.264c-0.847-0.557-1.911-1.086-2.952-1.414c-0.152,0.04-0.303,0.083-0.453,0.129
		c-0.055,0.017-0.109,0.037-0.163,0.054c-0.098,0.032-0.195,0.064-0.291,0.098c-0.062,0.022-0.122,0.044-0.183,0.068
		c-0.089,0.035-0.179,0.068-0.266,0.105c-0.062,0.024-0.122,0.05-0.182,0.077c-0.089,0.038-0.176,0.079-0.264,0.12
		c-0.057,0.026-0.113,0.052-0.169,0.08c-0.099,0.048-0.195,0.1-0.293,0.15c-0.042,0.022-0.085,0.044-0.128,0.066
		c-0.136,0.073-0.269,0.151-0.399,0.23C10.54,2.411,10.5,2.438,10.459,2.463c-0.092,0.058-0.185,0.115-0.275,0.176
		c-0.051,0.034-0.101,0.07-0.151,0.104C9.954,2.798,9.876,2.854,9.798,2.91C9.746,2.949,9.694,2.987,9.644,3.026
		C9.567,3.084,9.494,3.143,9.419,3.203c-0.048,0.04-0.097,0.079-0.145,0.119C9.195,3.386,9.119,3.455,9.043,3.522
		C9.002,3.558,8.961,3.593,8.921,3.629c-0.113,0.104-0.225,0.21-0.334,0.319C8.569,3.966,8.552,3.985,8.534,4.003
		C8.442,4.096,8.352,4.19,8.265,4.287C8.226,4.329,8.189,4.372,8.152,4.415C8.085,4.488,8.019,4.563,7.954,4.642
		c-0.04,0.047-0.079,0.096-0.117,0.144c-0.062,0.075-0.121,0.15-0.18,0.228C7.62,5.062,7.582,5.111,7.547,5.161
		C7.485,5.242,7.428,5.325,7.369,5.407C7.338,5.455,7.306,5.5,7.274,5.546c-0.07,0.105-0.139,0.212-0.206,0.321
		c-0.017,0.025-0.032,0.05-0.048,0.076C6.939,6.076,6.861,6.212,6.786,6.349C6.765,6.391,6.743,6.434,6.721,6.475
		C6.668,6.573,6.617,6.67,6.569,6.77C6.543,6.823,6.519,6.876,6.493,6.93C6.45,7.02,6.408,7.112,6.369,7.205
		C6.345,7.261,6.32,7.317,6.297,7.375C6.258,7.467,6.222,7.563,6.185,7.658c-0.02,0.054-0.041,0.109-0.061,0.164
		c-0.04,0.109-0.076,0.219-0.112,0.329C5.999,8.192,5.983,8.233,5.971,8.276C5.923,8.429,5.879,8.583,5.839,8.737
		C5.831,8.771,5.823,8.805,5.815,8.839c-0.031,0.123-0.06,0.246-0.087,0.371C5.717,9.265,5.707,9.322,5.696,9.377
		C5.676,9.482,5.657,9.586,5.641,9.692c-0.01,0.062-0.02,0.124-0.028,0.185c-0.015,0.104-0.027,0.208-0.039,0.312
		c-0.008,0.062-0.015,0.123-0.021,0.185c-0.011,0.112-0.02,0.224-0.025,0.337c-0.003,0.053-0.008,0.107-0.011,0.16
		c-0.008,0.167-0.013,0.333-0.013,0.501c0,0.183,0.004,0.365,0.014,0.545c0.002,0.039,0.007,0.075,0.009,0.113
		c0.008,0.143,0.02,0.286,0.034,0.427c0.003,0.031,0.008,0.062,0.012,0.093c0.017,0.148,0.035,0.295,0.057,0.441
		c0.004,0.022,0.01,0.043,0.013,0.066c0.024,0.154,0.052,0.308,0.084,0.46c0.002,0.012,0.005,0.023,0.009,0.036
		c0.034,0.161,0.071,0.322,0.112,0.481c0.001,0.004,0.002,0.008,0.004,0.012c0.133,0.507,0.304,0.999,0.509,1.471
		c1.61,3.732,5.324,6.35,9.641,6.35C20.315,21.867,24.028,19.248,25.641,15.518z M11.628,14.359c-0.851,0-1.541-0.69-1.541-1.541
		c0-0.852,0.69-1.541,1.541-1.541c0.852,0,1.542,0.688,1.542,1.541C13.17,13.669,12.479,14.359,11.628,14.359z M16,14.359
		c0.715,0,1.316,0.489,1.489,1.15c-0.54,0.043-1.048,0.082-1.489,0.082c-0.442,0-0.951-0.039-1.489-0.082
		C14.685,14.848,15.284,14.359,16,14.359z M17.423,19.137c-0.067,0.035-0.666,0.357-1.423,0.357c-0.758,0-1.357-0.322-1.423-0.357
		c-0.328-0.184-0.445-0.6-0.263-0.928s0.598-0.445,0.928-0.264c0,0,0.353,0.188,0.758,0.188c0.407,0,0.759-0.188,0.762-0.189
		c0.33-0.176,0.743-0.057,0.924,0.271C17.865,18.543,17.75,18.955,17.423,19.137z M20.711,14.32
		c-0.074,0.006-0.146,0.016-0.219,0.034c-0.039,0.003-0.08,0.006-0.12,0.006c-0.851,0-1.541-0.69-1.541-1.541
		c0-0.852,0.69-1.541,1.541-1.541s1.541,0.688,1.541,1.541C21.913,13.553,21.399,14.166,20.711,14.32z"/>
	<path fill="#F08100" d="M7.473,19.615c-0.036-0.035-0.067-0.07-0.094-0.111c-0.844-0.896-1.548-1.92-2.083-3.037
		c-2.259,2.682-5.423,8.578-5.292,11.822l0.005,0.141c0.001,0.029,0.004,0.061,0.007,0.09c0.16,1.486,1.407,2.604,2.9,2.604h16.39
		L7.473,19.615z"/>
</g>
</svg>
