<?xml version="1.0" encoding="utf-8"?>
<!-- Generator: Adobe Illustrator 16.0.4, SVG Export Plug-In . SVG Version: 6.00 Build 0)  -->
<!DOCTYPE svg PUBLIC "-//W3C//DTD SVG 1.1//EN" "http://www.w3.org/Graphics/SVG/1.1/DTD/svg11.dtd">
<svg version="1.1" id="Layer_1" xmlns="http://www.w3.org/2000/svg" xmlns:xlink="http://www.w3.org/1999/xlink" x="0px" y="0px"
	 width="112px" height="112.002px" viewBox="0 0 112 112.002" enable-background="new 0 0 112 112.002" xml:space="preserve">
<path d="M67.27,52c2.535-4.904,4-10.462,4-16.366C71.27,15.96,55.314,0,35.635,0C15.96-0.005,0,15.955,0,35.635
	c0,19.679,15.96,35.64,35.635,35.64c5.908,0,11.461-1.459,16.361-4.004L71.27,86.54h10.188c0,0.009,0,10.188,0,10.188h10.179v10.183
	l5.092,5.092H112V96.728L67.27,52z M25.662,37.333C19.227,37.333,14,32.111,14,25.666C14,19.222,19.227,14,25.662,14
	c6.449,0,11.671,5.222,11.671,11.667C37.333,32.111,32.111,37.333,25.662,37.333z"/>
</svg>
