<?xml version="1.0" encoding="utf-8"?>
<!-- Generator: Adobe Illustrator 16.0.4, SVG Export Plug-In . SVG Version: 6.00 Build 0)  -->
<!DOCTYPE svg PUBLIC "-//W3C//DTD SVG 1.1//EN" "http://www.w3.org/Graphics/SVG/1.1/DTD/svg11.dtd">
<svg version="1.1" id="Layer_1" xmlns="http://www.w3.org/2000/svg" xmlns:xlink="http://www.w3.org/1999/xlink" x="0px" y="0px"
	 width="95.334px" height="105.055px" viewBox="0 0 95.334 105.055" enable-background="new 0 0 95.334 105.055"
	 xml:space="preserve">
<path d="M87.647,9.62C82.274,3.402,76.28,0.249,69.834,0.249c-5.199,0-14.804,2.312-22.158,17.353
	C42.317,6.383,34.183,0.001,25.126,0C17.919,0,11.749,3.34,6.788,9.924C2.284,15.851,0,22.585,0,29.938
	c0,7.604,2.54,16.301,7.55,25.854c4.241,8.007,10.266,16.731,17.906,25.935c6.26,7.497,13.418,15.122,21.275,22.663l0.692,0.664
	l0.692-0.664c9.083-8.702,16.607-16.572,22.361-23.392c7.67-9.087,13.616-17.818,17.676-25.955
	c4.766-9.547,7.181-18.815,7.181-27.55C95.334,21.51,92.747,15.497,87.647,9.62z M86.364,54.151
	c-3.988,7.993-9.848,16.592-17.416,25.558c-5.562,6.591-12.801,14.184-21.522,22.572c-7.534-7.273-14.405-14.616-20.432-21.834
	c-7.552-9.095-13.5-17.704-17.675-25.587C4.463,45.6,2,37.214,2,29.938c0-6.907,2.146-13.233,6.383-18.809
	C13.012,4.986,18.489,2,25.126,2c12.419,0.001,19.255,12.862,21.618,18.393l0.903,2.112l0.931-2.102
	C55.575,4.607,64.899,2.248,69.835,2.248c5.84,0,11.324,2.92,16.302,8.68c4.776,5.505,7.198,11.078,7.198,16.565
	C93.334,35.915,90.989,44.884,86.364,54.151z"/>
</svg>
