<?xml version="1.0" encoding="utf-8"?>
<!-- Generator: Adobe Illustrator 16.0.4, SVG Export Plug-In . SVG Version: 6.00 Build 0)  -->
<!DOCTYPE svg PUBLIC "-//W3C//DTD SVG 1.1//EN" "http://www.w3.org/Graphics/SVG/1.1/DTD/svg11.dtd">
<svg version="1.1" id="Layer_1" xmlns="http://www.w3.org/2000/svg" xmlns:xlink="http://www.w3.org/1999/xlink" x="0px" y="0px"
	 width="102.667px" height="112.002px" viewBox="0 0 102.667 112.002" enable-background="new 0 0 102.667 112.002"
	 xml:space="preserve">
<path d="M102.667,28.901c0,9.413-2.602,19.264-7.778,29.57c-4.468,8.875-10.906,18.23-19.304,28.098
	c-6.346,7.457-14.514,15.932-24.519,25.434c-8.67-8.256-16.44-16.465-23.319-24.635C19.343,77.335,12.824,67.964,8.175,59.265
	C2.73,48.968,0,39.732,0,31.566c0-7.812,2.414-14.868,7.244-21.173C12.51,3.458,18.941,0,26.539,0
	c11.969,0,20.233,10.155,24.789,20.725C55.966,10.332,64.103,0.271,75.721,0.271c6.784,0,13.043,3.281,18.764,9.847
	C99.932,16.343,102.667,22.601,102.667,28.901z"/>
</svg>
