<?xml version="1.0" encoding="utf-8"?>
<!-- Generator: Adobe Illustrator 16.0.4, SVG Export Plug-In . SVG Version: 6.00 Build 0)  -->
<!DOCTYPE svg PUBLIC "-//W3C//DTD SVG 1.1//EN" "http://www.w3.org/Graphics/SVG/1.1/DTD/svg11.dtd">
<svg version="1.1" id="Layer_1" xmlns="http://www.w3.org/2000/svg" xmlns:xlink="http://www.w3.org/1999/xlink" x="0px" y="0px"
	 width="104.65px" height="104.65px" viewBox="0 0 104.65 104.65" enable-background="new 0 0 104.65 104.65" xml:space="preserve">
<path d="M7.929,7.928c-7.907,7.908-7.907,20.774,0,28.683L25.018,53.7c0.392,0.391,0.392,1.022,0,1.414
	c-0.391,0.391-1.022,0.391-1.414,0L6.515,38.026c-8.687-8.688-8.687-22.823,0-31.512c8.688-8.686,22.822-8.687,31.511,0
	c2.752,2.753,20.019,20.021,22.771,22.773c8.688,8.688,8.688,22.823,0,31.51c-1.001,0.999-2.089,1.9-3.233,2.681
	c-0.173,0.117-0.368,0.175-0.562,0.175c-0.319,0-0.634-0.152-0.827-0.438c-0.312-0.457-0.192-1.079,0.263-1.39
	c1.044-0.711,2.034-1.532,2.947-2.443c7.906-7.907,7.906-20.773-0.001-28.681C56.63,27.949,39.364,10.681,36.613,7.928
	C28.703,0.022,15.837,0.022,7.929,7.928z M98.136,66.625L81.155,49.643c-0.392-0.391-1.023-0.391-1.414,0
	c-0.392,0.392-0.392,1.023,0,1.414l16.981,16.982c7.906,7.907,7.906,20.773,0,28.683c-7.909,7.905-20.774,7.906-28.683,0
	L45.266,73.949c-3.831-3.832-5.94-8.925-5.94-14.342s2.109-10.509,5.941-14.342c0.689-0.691,1.437-1.34,2.22-1.926
	c0.441-0.331,0.532-0.957,0.201-1.398c-0.33-0.442-0.955-0.533-1.398-0.202c-0.862,0.644-1.682,1.355-2.438,2.114
	c-4.208,4.208-6.525,9.803-6.525,15.754s2.317,11.547,6.526,15.755l22.773,22.772c4.344,4.343,10.049,6.516,15.755,6.516
	s11.412-2.173,15.756-6.516C106.823,89.448,106.823,75.312,98.136,66.625z"/>
</svg>
