<?xml version="1.0" encoding="utf-8"?>
<!-- Generator: Adobe Illustrator 16.0.4, SVG Export Plug-In . SVG Version: 6.00 Build 0)  -->
<!DOCTYPE svg PUBLIC "-//W3C//DTD SVG 1.1//EN" "http://www.w3.org/Graphics/SVG/1.1/DTD/svg11.dtd">
<svg version="1.1" id="Layer_1" xmlns="http://www.w3.org/2000/svg" xmlns:xlink="http://www.w3.org/1999/xlink" x="0px" y="0px"
	 width="93.332px" height="111.873px" viewBox="0 0 93.332 111.873" enable-background="new 0 0 93.332 111.873"
	 xml:space="preserve">
<path d="M89.666,18.555v52.841c2.29,1.852,3.666,4.588,3.666,7.938c0,7.731-7.312,15.782-16.332,17.979
	c-9.021,2.199-16.334-2.287-16.334-10.019S67.979,71.514,77,69.316c4.081-0.994,7.803-0.61,10.666,0.812V19.024L28.999,39.909
	v45.487c2.29,1.851,3.667,4.588,3.667,7.938c0,7.732-7.312,15.782-16.333,17.98C7.312,113.51,0,109.032,0,101.297
	c0-7.73,7.312-15.781,16.333-17.979c4.081-0.994,7.804-0.61,10.666,0.812V40.481c-2.095,0.231-3.667-1.111-3.667-3.343v-9.333
	c0-2.576,2.091-5.357,4.667-6.207L88.666,0.001c2.576,0,4.666,2.091,4.666,4.667v9.333C93.332,16.234,91.762,18.096,89.666,18.555z"
	/>
</svg>
