<?xml version="1.0" encoding="utf-8"?>
<!-- Generator: Adobe Illustrator 16.0.4, SVG Export Plug-In . SVG Version: 6.00 Build 0)  -->
<!DOCTYPE svg PUBLIC "-//W3C//DTD SVG 1.1//EN" "http://www.w3.org/Graphics/SVG/1.1/DTD/svg11.dtd">
<svg version="1.1" id="Layer_1" xmlns="http://www.w3.org/2000/svg" xmlns:xlink="http://www.w3.org/1999/xlink" x="0px" y="0px"
	 width="112px" height="112px" viewBox="0 0 112 112" enable-background="new 0 0 112 112" xml:space="preserve">
<path d="M37.333,79.334h37.334V84H37.333V79.334L37.333,79.334z M37.333,93.334h23.334v-4.668H37.333V93.334L37.333,93.334z
	 M112,37.333v51.333c0,2.576-2.09,4.668-4.666,4.668h-14V112H18.667V93.335h-14C2.09,93.335,0,91.243,0,88.667V37.334
	c0-2.576,2.09-4.667,4.666-4.667h14V0h74.668v32.667h14C109.909,32.667,112,34.757,112,37.333z M28,32.667h56V9.333H28V32.667z
	 M84,102.666V70H28v32.666H84z M102.667,46.666c0-2.576-2.09-4.667-4.666-4.667s-4.666,2.091-4.666,4.667s2.09,4.667,4.666,4.667
	S102.667,49.243,102.667,46.666z"/>
</svg>
