<?xml version="1.0" encoding="utf-8"?>
<!-- Generator: Adobe Illustrator 16.0.4, SVG Export Plug-In . SVG Version: 6.00 Build 0)  -->
<!DOCTYPE svg PUBLIC "-//W3C//DTD SVG 1.1//EN" "http://www.w3.org/Graphics/SVG/1.1/DTD/svg11.dtd">
<svg version="1.1" id="Layer_1" xmlns="http://www.w3.org/2000/svg" xmlns:xlink="http://www.w3.org/1999/xlink" x="0px" y="0px"
	 width="112px" height="111.998px" viewBox="0 0 112 111.998" enable-background="new 0 0 112 111.998" xml:space="preserve">
<path d="M112,73.228c0,7.137-5.781,12.922-12.922,12.922c-3.431,0-6.402-1.604-8.845-3.541c-4.808-3.818-7.536-5.455-8.385-0.768
	c-0.854,4.723-5.267,30.156-5.267,30.156H0c0,0,0-10.766,0-29.188c0.061-0.365,0.121-0.701,0.172-0.969
	c0.85-4.688,5.349-1.684,8.387,0.768c3.038,2.449,5.413,3.541,8.843,3.541c7.136,0,12.923-5.785,12.923-12.922
	s-5.783-12.922-12.923-12.922c-3.243,0-5.991,1.396-8.614,3.299c-4.074,2.965-7.383,5.312-8.615,1.01
	C0.118,64.423,0.056,64.198,0,63.983c0-17.448,0-28.877,0-28.877s20.641-3.868,25.849-4.95c4.844-1.013,7.267-2.828,3.229-8.685
	c-2.133-3.093-3.229-5.31-3.229-8.549C25.849,5.788,31.631,0,38.771,0c7.135,0,12.922,5.787,12.922,12.927
	c0,3.29-0.948,4.713-3.29,8.54c-3.509,5.726-1.083,7.681,3.29,8.689c4.62,1.064,24.892,4.956,24.892,4.956
	s4.084,25.004,5.266,29.504c1.18,4.498,3.951,2.309,8.613-1.01c3.49-2.488,5.371-3.301,8.615-3.301
	C106.213,60.306,112,66.091,112,73.228z"/>
</svg>
