<?xml version="1.0" encoding="utf-8"?>
<!-- Generator: Adobe Illustrator 16.0.4, SVG Export Plug-In . SVG Version: 6.00 Build 0)  -->
<!DOCTYPE svg PUBLIC "-//W3C//DTD SVG 1.1//EN" "http://www.w3.org/Graphics/SVG/1.1/DTD/svg11.dtd">
<svg version="1.1" id="Layer_1" xmlns="http://www.w3.org/2000/svg" xmlns:xlink="http://www.w3.org/1999/xlink" x="0px" y="0px"
	 width="104.718px" height="112.004px" viewBox="0 0 104.718 112.004" enable-background="new 0 0 104.718 112.004"
	 xml:space="preserve">
<path d="M52.36,23.334c-18.041,0-32.666,14.625-32.666,32.667S34.319,88.668,52.36,88.668s32.666-14.625,32.666-32.667
	S70.401,23.334,52.36,23.334z M52.36,74.668c-10.309,0-18.666-8.357-18.666-18.667c0-10.309,8.357-18.667,18.666-18.667
	c10.31,0,18.666,8.358,18.666,18.667C71.026,66.311,62.669,74.668,52.36,74.668z M100.262,28.168
	c-5.301-9.394-6.094-8.801-6.094-8.801c-5.834,1.927-10.039,2.847-12.639,3.299c-4.273-3.743-9.264-6.668-14.752-8.559
	c-0.898-2.459-2.271-6.744-3.588-13.118c0,0,0.106-0.989-10.552-0.989C41.961,0,42.077,0.989,42.077,0.989
	c-1.268,6.155-2.594,10.388-3.494,12.89c-5.441,1.778-10.422,4.568-14.709,8.167c-2.585-0.509-6.762-1.521-12.544-3.565
	c0,0-0.784-0.611-6.277,8.671c-5.502,9.272-4.606,9.683-4.606,9.683c4.262,4.004,7.043,7.149,8.736,9.245
	c-0.732,3.192-1.158,6.505-1.158,9.921c0,3.095,0.322,6.108,0.924,9.024c-1.74,2.061-4.578,5.135-8.889,9.018
	c0,0-0.906,0.395,4.4,9.785c5.301,9.391,6.09,8.807,6.09,8.807c5.838-1.928,10.042-2.852,12.643-3.305
	c4.273,3.748,9.268,6.674,14.76,8.562c0.906,2.463,2.273,6.738,3.584,13.117c0,0-0.116,0.994,10.557,0.994
	c10.66,0,10.551-0.994,10.551-0.994c1.271-6.15,2.59-10.387,3.495-12.885c5.44-1.777,10.421-4.568,14.705-8.166
	c2.591,0.508,6.767,1.52,12.543,3.568c0,0,0.779,0.605,6.291-8.67c5.492-9.281,4.597-9.688,4.597-9.688
	c-4.265-4.006-7.041-7.154-8.734-9.246c0.729-3.201,1.152-6.51,1.152-9.926c0-3.094-0.32-6.109-0.924-9.025
	c1.741-2.052,4.573-5.127,8.891-9.015C104.659,37.959,105.569,37.563,100.262,28.168z M52.36,93.336
	c-20.617,0-37.332-16.717-37.332-37.335c0-20.617,16.715-37.333,37.332-37.333s37.334,16.716,37.334,37.333
	C89.694,76.62,72.977,93.336,52.36,93.336z"/>
</svg>
