<?xml version="1.0" encoding="utf-8"?>
<!-- Generator: Adobe Illustrator 16.0.4, SVG Export Plug-In . SVG Version: 6.00 Build 0)  -->
<!DOCTYPE svg PUBLIC "-//W3C//DTD SVG 1.1//EN" "http://www.w3.org/Graphics/SVG/1.1/DTD/svg11.dtd">
<svg version="1.1" id="Layer_1" xmlns="http://www.w3.org/2000/svg" xmlns:xlink="http://www.w3.org/1999/xlink" x="0px" y="0px"
	 width="111.998px" height="111.998px" viewBox="0 0 111.998 111.998" enable-background="new 0 0 111.998 111.998"
	 xml:space="preserve">
<path d="M108.039,90.16c-0.626-0.625-37.264-33.451-53.985-50.171c-3.107-3.108-1.881-5.385-1.242-6.515
	c4.481-7.919,4.78-16.035-2.799-23.613c-7.998-8.007-21.08-11.694-31.916-8.973l19.241,19.241c0,0,0,5.735-5.735,11.475
	c-5.74,5.735-11.475,5.735-11.475,5.735L0.888,18.098c-2.722,10.836,0.965,23.912,8.969,31.92c7.4,7.4,15.32,7.291,23.062,3.103
	c1.308-0.709,4.19-1.857,7.467,1.423c17.017,17.013,49.155,52.878,49.776,53.494c5.138,5.138,13.3,5.296,18.235,0.358
	C113.335,103.459,113.176,95.293,108.039,90.16z M98.001,103.602c-3.094,0-5.601-2.507-5.601-5.601s2.507-5.601,5.601-5.601
	s5.601,2.507,5.601,5.601S101.095,103.602,98.001,103.602z"/>
</svg>
