<?xml version="1.0" encoding="utf-8"?>
<!-- Generator: Adobe Illustrator 16.0.4, SVG Export Plug-In . SVG Version: 6.00 Build 0)  -->
<!DOCTYPE svg PUBLIC "-//W3C//DTD SVG 1.1//EN" "http://www.w3.org/Graphics/SVG/1.1/DTD/svg11.dtd">
<svg version="1.1" id="Layer_1" xmlns="http://www.w3.org/2000/svg" xmlns:xlink="http://www.w3.org/1999/xlink" x="0px" y="0px"
	 width="24px" height="24px" viewBox="0 0 24 24" enable-background="new 0 0 24 24" xml:space="preserve">
<path d="M24,20c0,2.209-1.791,4-4,4s-4-1.791-4-4c0-0.287,0.033-0.566,0.091-0.837l-9.089-4.544C6.268,15.458,5.202,16,4,16
	c-2.209,0-4-1.791-4-4s1.791-4,4-4c1.202,0,2.268,0.542,3.001,1.381l9.089-4.545C16.033,4.566,16,4.287,16,4c0-2.209,1.791-4,4-4
	s4,1.791,4,4s-1.791,4-4,4c-1.202,0-2.268-0.542-3.001-1.381l-9.09,4.544C7.967,11.434,8,11.713,8,12s-0.033,0.566-0.091,0.837
	l9.09,4.544C17.732,16.541,18.798,16,20,16C22.209,16,24,17.791,24,20z"/>
</svg>
