<?xml version="1.0" encoding="utf-8"?>
<!-- Generator: Adobe Illustrator 17.0.2, SVG Export Plug-In . SVG Version: 6.00 Build 0)  -->
<!DOCTYPE svg PUBLIC "-//W3C//DTD SVG 1.1//EN" "http://www.w3.org/Graphics/SVG/1.1/DTD/svg11.dtd">
<svg version="1.1" id="Ebene_1" xmlns="http://www.w3.org/2000/svg" xmlns:xlink="http://www.w3.org/1999/xlink" x="0px" y="0px"
	 width="96.628px" height="35.365px" viewBox="-6.88 11.413 96.628 35.365" enable-background="new -6.88 11.413 96.628 35.365"
	 xml:space="preserve">
<path fill="#FFFFFF" d="M88.572,26.916c-0.007-1.186-0.133-2.941-1.142-4.474c-0.481-0.723-1.141-1.307-1.91-1.689
	c-0.805-0.403-1.749-0.608-2.804-0.608c-0.209,0-0.412,0.007-0.619,0.022c-1.516,0.105-11.711,1.563-12.144,1.625l-0.411,0.059
	l0.417-2.685c0.219-1.409,0.465-2.996,0.505-3.249l0.022-0.144c-0.011-0.132-0.107-0.235-0.232-0.253l-2.403-0.35
	c-0.145-0.021-0.286,0.085-0.307,0.229l-0.185,1.165c-0.301,1.89-0.86,5.408-0.875,5.504l-0.035,0.225l-9.354,1.342l0.064-0.411
	c0.478-3.062,0.914-5.475,0.996-5.928c0.03-0.173,0.051-0.293,0.062-0.367l0.019-0.12c0.003-0.057-0.015-0.119-0.054-0.172
	c-0.043-0.058-0.107-0.095-0.178-0.106l-2.403-0.35c-0.137-0.019-0.266,0.07-0.303,0.206l-0.017,0.12
	c-0.073,0.468-0.392,2.44-0.731,4.527l-0.102,0.629c-0.461,2.847-1.159,7.149-1.373,8.516l-0.025,0.082
	c-0.04,0.23-0.15,0.672-0.447,1.072c-0.46,0.621-3.361,2.944-9.138,2.954c-0.721-0.001-1.326-0.123-1.799-0.363
	c-0.586-0.311-0.928-0.708-1.222-1.416c-0.231-0.573-0.367-1.337-0.394-2.21l-0.01-0.321l0.382,0.004
	c0.604-0.054,1.244-0.116,1.843-0.18c1.06-0.112,1.997-0.229,2.787-0.347c0.808-0.124,1.652-0.267,2.343-0.478
	c0.936-0.288,1.738-0.808,2.318-1.504c0.621-0.74,0.962-1.677,0.958-2.639c0-0.735-0.197-1.501-0.571-2.218
	c-0.721-1.398-1.905-2.063-2.546-2.335c-0.791-0.338-1.631-0.511-2.499-0.514h-0.032c-0.032,0-0.062,0-0.087,0.001
	c-1.606,0.036-2.907,0.367-3.977,1.014c-1.153,0.691-2.092,1.829-2.716,3.292c-0.099,0.229-0.197,0.506-0.32,0.898
	c-0.365,1.19-0.801,3.028-0.806,5.021c0,0.1,0.006,0.307,0.007,0.375l0.001,0.024c0.033,0.979,0.194,1.878,0.49,2.749l0.104,0.305
	l-0.001,0l0.095,0.25l-0.328,0.088c-0.827,0.223-1.714,0.382-2.636,0.474c-0.029,0.003-0.055,0.004-0.077,0.004l-0.023,0
	c-0.299-0.008-0.526-0.057-0.806-0.282c-0.309-0.276-0.455-0.688-0.46-1.272c-0.002-0.2,0.018-0.428,0.058-0.676l0.175-1.065
	c0.494-3.014,0.819-4.998,0.828-5.055c0.054-0.345,0.081-0.686,0.081-1.014c0.001-0.775-0.159-1.521-0.463-2.158
	c-0.437-0.93-1.219-1.699-2.201-2.167c-0.877-0.423-1.911-0.638-3.073-0.639c-0.361,0-0.732,0.021-1.102,0.063
	c-1.35,0.153-3.087,0.474-4.544,1.6c-0.685,0.533-1.268,1.24-1.687,2.046c-0.434,0.828-0.726,1.778-0.894,2.904l-0.013,0.077
	c-0.185,1.1-0.526,3.135-0.728,4.408l-0.066,0.429c-0.045,0.276-0.089,0.542-0.109,0.636c-0.12,0.787-0.382,1.363-0.8,1.756
	c-0.318,0.291-0.686,0.44-1.095,0.443c-0.378,0-0.737-0.139-0.987-0.382c-0.224-0.231-0.431-0.533-0.442-1.196
	c0-0.126,0.008-0.25,0.025-0.382c0.049-0.352,0.775-4.649,0.996-5.958l0.011-0.063c0.06-0.378,0.091-0.748,0.091-1.098
	c0.012-1.395-0.505-2.677-1.418-3.52c-0.858-0.801-2.09-1.242-3.564-1.274l-0.024,0c-0.869,0-4.285,0.783-4.43,0.816l-0.141,0.033
	l-0.115-0.089c-1.243-0.959-2.875-1.487-4.594-1.487c-1.111,0-2.221,0.204-3.299,0.607c-2,0.747-3.64,2.096-4.618,3.799
	c-0.975,1.697-1.173,3.539-0.558,5.187c0.247,0.662,0.643,1.286,1.177,1.857l0.189,0.202l-0.459,0.533
	c-0.774,0.947-1.202,2.07-1.201,3.16c-0.005,1.069,0.416,2.093,1.156,2.81C-3.612,38.582-2.53,39-1.384,39h0.022
	c0.261,0,0.535-0.021,0.815-0.061l4.919-0.707l2.838-0.377c0.133-0.012,0.256-0.017,0.382-0.017C8.271,37.841,8.782,38,9.112,38.31
	c0.232,0.231,0.468,0.574,0.482,1.379c0,0.193-0.016,0.4-0.049,0.616c-0.01,0.07-0.109,0.466-0.127,0.527
	c-0.376,1.258-2.059,2.01-4.5,2.01c-0.587,0-1.207-0.044-1.842-0.132L2.72,42.658c-0.02-0.003-0.037-0.005-0.054-0.005
	c-0.138,0-0.256,0.1-0.28,0.239l-0.269,2.067c-0.029,0.168,0.069,0.315,0.229,0.347c0.066,0.008,1.787,0.221,2.752,0.222h0.023
	c3.584,0,6.14-1.237,7.014-3.394c0.499-1.232,0.42-2.12,0.42-2.129l-0.002-0.033c0.011-1.405-0.501-2.693-1.405-3.539
	c-0.877-0.831-2.135-1.289-3.541-1.289c-0.245,0-0.478,0.011-0.709,0.034l-7.879,1.096c-0.025,0.004-0.343,0.059-0.806-0.078
	c-0.475-0.14-0.82-0.504-0.923-0.973c-0.074-0.335-0.064-0.861,0.402-1.464l0.841-1.002l0.204,0.078
	c0.265,0.101,0.523,0.198,0.77,0.263l0.027,0.007c0.572,0.126,1.163,0.191,1.752,0.191c1.111,0,2.221-0.204,3.3-0.607
	c3.851-1.439,6.161-5.023,5.372-8.337l-0.198-0.655l0.316-0.076c1.104-0.266,2.443-0.586,2.548-0.598
	c0.611-0.067,1.162,0.1,1.56,0.47c0.226,0.223,0.466,0.528,0.481,1.349c0,0.197-0.017,0.407-0.052,0.627l-1.037,6.122
	c-0.036,0.265-0.055,0.532-0.055,0.794c-0.009,1.296,0.481,2.511,1.345,3.334c0.814,0.785,1.896,1.217,3.047,1.217
	c1.149,0,2.252-0.436,3.106-1.227c0.908-0.833,1.521-2.075,1.726-3.498c0.094-0.639,0.347-2.171,0.489-3.027
	c0.216-1.303,0.334-2.006,0.361-2.151l0.011-0.067c0.03-0.171,0.105-0.585,0.139-0.746c0.136-0.651,0.408-1.372,0.509-1.559
	c0.367-0.679,0.774-1.082,1.451-1.436c0.601-0.307,1.434-0.52,2.478-0.634c0.271-0.029,0.529-0.039,0.777-0.044
	c0.269,0,0.517,0.021,0.756,0.063l0.021,0.004c1.353,0.326,1.997,1.21,1.914,2.627l-0.031,0.219
	c-0.257,1.642-0.911,5.854-0.911,5.854c-0.061,0.389-0.092,0.769-0.092,1.128c-0.017,1.405,0.523,2.712,1.446,3.496
	c0.978,0.844,2.041,1.025,2.76,1.029c0.12,0,0.241-0.005,0.371-0.017c1.329-0.134,2.56-0.385,3.658-0.748
	c0.229-0.075,0.45-0.155,0.698-0.25l0.144-0.055l0.13,0.083c0.206,0.131,0.416,0.246,0.626,0.343
	c0.864,0.404,1.881,0.609,3.023,0.609c4.516-0.001,7.653-1.268,9.489-2.331l0.271-0.157l0.151,0.275
	c0.256,0.464,0.591,0.871,0.969,1.177c1.057,0.872,2.204,1.059,2.981,1.063l0.175-0.004c1.38-0.059,2.923-0.379,4.713-0.979
	c1.129-0.382,1.965-0.752,2.194-0.857l1.072-0.462l0.139,0.227c0.244,0.399,0.538,0.739,0.873,1.011
	c1.057,0.872,2.204,1.059,2.981,1.063l0.175-0.004c1.407-0.06,3.259-0.541,3.793-0.687l0.016-0.006
	c0.105-0.044,0.16-0.169,0.12-0.282l-0.756-2.109c-0.037-0.104-0.163-0.17-0.273-0.139l-0.259,0.071l-0.002-0.005
	c-0.448,0.114-1.873,0.46-2.759,0.496l-0.11,0.002c-0.378,0-0.813-0.154-1.058-0.375c-0.239-0.23-0.46-0.533-0.476-1.211
	c-0.005-0.199,0.083-0.877,0.095-0.943l1.132-7.242l8.992-1.29c0.536-0.076,1.063-0.148,1.567-0.213
	c0.671-0.087,1.906-0.239,2.637-0.287c0.133-0.01,0.265-0.015,0.404-0.015c0.605,0,1.092,0.096,1.486,0.293
	c0.496,0.258,0.789,0.598,1.048,1.212c0.096,0.234,0.175,0.506,0.235,0.809l0.06,0.308l-0.309,0.054
	c-0.592,0.104-1.184,0.214-1.759,0.327c-1.052,0.205-1.987,0.406-2.779,0.598c-1.076,0.263-1.825,0.485-2.43,0.72
	c-1.001,0.393-1.839,1.002-2.424,1.76c-0.614,0.789-0.95,1.767-0.946,2.752c0,0.177,0.012,0.367,0.037,0.563l0.006,0.05
	c0.17,1.571,1.07,2.641,1.591,3.14l0.038,0.042c0.458,0.436,1.008,0.803,1.587,1.055c0.799,0.348,1.635,0.526,2.487,0.53
	l0.116-0.002c1.603-0.035,2.903-0.367,3.973-1.013c1.153-0.691,2.092-1.829,2.716-3.293c0.102-0.239,0.199-0.517,0.325-0.929
	c0.323-1.087,0.724-2.773,0.797-4.633L88.572,26.916z M40.492,26.797c0.047-0.186,0.098-0.37,0.151-0.549l0.035-0.123
	c0.048-0.179,0.097-0.349,0.145-0.504c0.088-0.285,0.179-0.534,0.212-0.603c0.415-0.944,0.87-1.52,1.521-1.923
	c0.611-0.371,1.433-0.564,2.512-0.588c0.021-0.001,0.039-0.001,0.053-0.001h0.023c0.343,0,0.878,0.084,1.301,0.271
	c0.517,0.231,0.852,0.532,1.087,0.974c0.166,0.322,0.243,0.595,0.237,0.836c-0.012,0.47-0.085,0.856-0.404,1.216
	c-0.157,0.177-0.441,0.417-0.904,0.559c-0.352,0.112-1.102,0.26-1.911,0.378c-1.24,0.186-2.713,0.342-3.731,0.439l-0.435,0.042
	L40.492,26.797z M6.966,26.989L6.864,27.28l-0.009-0.003c-0.535,1.27-1.771,2.369-3.311,2.943c-0.744,0.277-1.503,0.417-2.256,0.417
	c-1.503,0-2.781-0.57-3.426-1.524L-2.3,28.859c-0.362-0.695-0.633-1.853,0.133-3.429l0.115-0.189
	c0.624-1.071,1.742-1.968,3.069-2.462c0.743-0.277,1.503-0.417,2.256-0.417c1.383,0,2.572,0.476,3.262,1.306l0.171,0.224
	C7.042,24.363,7.473,25.543,6.966,26.989z M65.069,31.217c-0.012,0.064-0.02,0.117-0.028,0.17l-0.02,0.131
	c-0.016,0.09-0.028,0.168-0.039,0.247l-0.024,0.17l-1.835,0.791c-0.161,0.073-1.009,0.45-2.12,0.813
	c-1.335,0.44-2.664,0.715-3.646,0.752l-0.075,0.002c0,0-0.001,0-0.001,0c-0.393,0-0.827-0.153-1.074-0.373
	c-0.266-0.257-0.454-0.493-0.477-1.209c-0.001-0.206,0.021-0.429,0.065-0.667l0.012-0.072c0.008-0.065,0.02-0.144,0.035-0.229
	l0.852-5.436l9.354-1.343L65.069,31.217z M85.467,28.513c-0.032,0.193-0.07,0.39-0.118,0.623c-0.046,0.271-0.101,0.551-0.162,0.828
	c-0.117,0.528-0.232,0.938-0.308,1.189c-0.088,0.296-0.184,0.557-0.21,0.614c-0.416,0.945-0.872,1.52-1.522,1.922
	c-0.609,0.369-1.427,0.562-2.5,0.588l-0.07,0.002c-0.33,0-0.851-0.086-1.277-0.279c-0.532-0.242-0.888-0.556-1.153-1.018
	c-0.089-0.158-0.157-0.307-0.21-0.455c-0.166-0.54-0.083-1.176-0.022-1.483c0.083-0.311,0.194-0.508,0.259-0.6
	c0.017-0.027,0.045-0.069,0.077-0.111c0.18-0.234,0.527-0.564,1.163-0.814c0.434-0.171,1.179-0.389,2.046-0.599
	c1.257-0.305,2.679-0.582,3.65-0.76l0.432-0.079L85.467,28.513z"/>
<path fill="#FFFFFF" d="M18.725,17.046c0.008-1.351-0.482-2.589-1.345-3.396c-0.84-0.797-2.049-1.236-3.405-1.236h-0.022
	c-0.206,0-0.433,0.011-0.672,0.033l-5.028,0.707c-0.004,0.001-0.008,0.003-0.012,0.004c-0.013,0.002-0.026,0.003-0.037,0.006
	c-0.128,0.035-0.212,0.157-0.2,0.291l0.268,1.983c0.015,0.163,0.143,0.275,0.298,0.264l0.012-0.001c0.003,0,0.006,0.002,0.009,0.002
	l0.116-0.016l0.014-0.002v0l4.809-0.671c0.148-0.014,0.276-0.02,0.421-0.02c0.731,0.005,1.286,0.181,1.652,0.525
	c0.37,0.367,0.532,0.821,0.544,1.519c0,0.181-0.06,0.507-0.061,0.511l0.002,0.003c0,0.003-0.001,0.007-0.001,0.01
	c-0.004,0.132,0.089,0.248,0.221,0.275l1.977,0.311c0.16,0.032,0.304-0.058,0.339-0.21l0.002-0.009
	c0.001-0.003,0.004-0.004,0.005-0.008C18.632,17.91,18.725,17.353,18.725,17.046z"/>
</svg>
